<mxfile host="app.diagrams.net" agent="Mozilla/5.0 (Windows NT 10.0; Win64; x64) AppleWebKit/537.36 (KHTML, like Gecko) Chrome/128.0.0.0 Safari/537.36" version="24.7.13">
  <diagram name="Page-1" id="LSLwcj7UfilTSNT9eTL4">
    <mxGraphModel grid="1" page="1" gridSize="10" guides="1" tooltips="1" connect="1" arrows="1" fold="1" pageScale="1" pageWidth="850" pageHeight="1100" math="0" shadow="0">
      <root>
        <mxCell id="0" />
        <mxCell id="1" parent="0" />
        <mxCell id="t8ZlyX8RV-qBCHrKQRfq-22" style="edgeStyle=orthogonalEdgeStyle;rounded=0;orthogonalLoop=1;jettySize=auto;html=1;exitX=0.008;exitY=0.32;exitDx=0;exitDy=0;entryX=1.004;entryY=0.82;entryDx=0;entryDy=0;entryPerimeter=0;exitPerimeter=0;" edge="1" parent="1" source="kb6SPoYrshyZcdnbLKiK-1" target="kb6SPoYrshyZcdnbLKiK-2">
          <mxGeometry relative="1" as="geometry" />
        </mxCell>
        <mxCell id="kb6SPoYrshyZcdnbLKiK-1" value="" style="whiteSpace=wrap;html=1;aspect=fixed;" vertex="1" parent="1">
          <mxGeometry x="305" y="290" width="100" height="100" as="geometry" />
        </mxCell>
        <mxCell id="kb6SPoYrshyZcdnbLKiK-2" value="" style="whiteSpace=wrap;html=1;aspect=fixed;" vertex="1" parent="1">
          <mxGeometry x="40" y="40" width="100" height="100" as="geometry" />
        </mxCell>
        <mxCell id="rcWwpOU2PHJGjBlKOGmK-14" style="edgeStyle=orthogonalEdgeStyle;rounded=0;orthogonalLoop=1;jettySize=auto;html=1;exitX=1;exitY=0.5;exitDx=0;exitDy=0;entryX=0;entryY=0.5;entryDx=0;entryDy=0;" edge="1" parent="1" source="kb6SPoYrshyZcdnbLKiK-4" target="kb6SPoYrshyZcdnbLKiK-1">
          <mxGeometry relative="1" as="geometry" />
        </mxCell>
        <mxCell id="kb6SPoYrshyZcdnbLKiK-4" value="" style="whiteSpace=wrap;html=1;aspect=fixed;" vertex="1" parent="1">
          <mxGeometry x="40" y="290" width="100" height="100" as="geometry" />
        </mxCell>
        <mxCell id="rcWwpOU2PHJGjBlKOGmK-20" style="edgeStyle=orthogonalEdgeStyle;rounded=0;orthogonalLoop=1;jettySize=auto;html=1;" edge="1" parent="1" source="kb6SPoYrshyZcdnbLKiK-5" target="kb6SPoYrshyZcdnbLKiK-2">
          <mxGeometry relative="1" as="geometry" />
        </mxCell>
        <mxCell id="rcWwpOU2PHJGjBlKOGmK-23" style="edgeStyle=orthogonalEdgeStyle;rounded=0;orthogonalLoop=1;jettySize=auto;html=1;entryX=0.5;entryY=0;entryDx=0;entryDy=0;" edge="1" parent="1" source="kb6SPoYrshyZcdnbLKiK-5" target="t8ZlyX8RV-qBCHrKQRfq-1">
          <mxGeometry relative="1" as="geometry" />
        </mxCell>
        <mxCell id="kb6SPoYrshyZcdnbLKiK-5" value="" style="whiteSpace=wrap;html=1;aspect=fixed;" vertex="1" parent="1">
          <mxGeometry x="305" y="40" width="100" height="100" as="geometry" />
        </mxCell>
        <mxCell id="t8ZlyX8RV-qBCHrKQRfq-1" value="Location" style="text;html=1;align=center;verticalAlign=middle;whiteSpace=wrap;rounded=0;" vertex="1" parent="1">
          <mxGeometry x="325" y="290" width="60" height="30" as="geometry" />
        </mxCell>
        <mxCell id="t8ZlyX8RV-qBCHrKQRfq-2" value="Student" style="text;html=1;align=center;verticalAlign=middle;whiteSpace=wrap;rounded=0;" vertex="1" parent="1">
          <mxGeometry x="60" y="290" width="60" height="30" as="geometry" />
        </mxCell>
        <mxCell id="t8ZlyX8RV-qBCHrKQRfq-3" value="Staff" style="text;html=1;align=center;verticalAlign=middle;whiteSpace=wrap;rounded=0;" vertex="1" parent="1">
          <mxGeometry x="325" y="37.5" width="60" height="30" as="geometry" />
        </mxCell>
        <mxCell id="t8ZlyX8RV-qBCHrKQRfq-4" value="Pictures" style="text;html=1;align=center;verticalAlign=middle;whiteSpace=wrap;rounded=0;" vertex="1" parent="1">
          <mxGeometry x="60" y="40" width="60" height="30" as="geometry" />
        </mxCell>
        <mxCell id="t8ZlyX8RV-qBCHrKQRfq-5" value="" style="endArrow=none;html=1;rounded=0;exitX=0;exitY=0.25;exitDx=0;exitDy=0;entryX=1;entryY=0.25;entryDx=0;entryDy=0;" edge="1" parent="1" source="kb6SPoYrshyZcdnbLKiK-5" target="kb6SPoYrshyZcdnbLKiK-5">
          <mxGeometry width="50" height="50" relative="1" as="geometry">
            <mxPoint x="400" y="300" as="sourcePoint" />
            <mxPoint x="340" y="230" as="targetPoint" />
          </mxGeometry>
        </mxCell>
        <mxCell id="t8ZlyX8RV-qBCHrKQRfq-7" value="" style="endArrow=none;html=1;rounded=0;exitX=0;exitY=0.25;exitDx=0;exitDy=0;entryX=1;entryY=0.25;entryDx=0;entryDy=0;" edge="1" parent="1" source="kb6SPoYrshyZcdnbLKiK-4" target="kb6SPoYrshyZcdnbLKiK-4">
          <mxGeometry width="50" height="50" relative="1" as="geometry">
            <mxPoint x="80" y="223" as="sourcePoint" />
            <mxPoint x="180" y="225" as="targetPoint" />
            <Array as="points" />
          </mxGeometry>
        </mxCell>
        <mxCell id="t8ZlyX8RV-qBCHrKQRfq-10" value="" style="endArrow=none;html=1;rounded=0;exitX=0;exitY=0.25;exitDx=0;exitDy=0;entryX=1;entryY=0.25;entryDx=0;entryDy=0;" edge="1" parent="1" source="kb6SPoYrshyZcdnbLKiK-2" target="kb6SPoYrshyZcdnbLKiK-2">
          <mxGeometry width="50" height="50" relative="1" as="geometry">
            <mxPoint x="290" y="110" as="sourcePoint" />
            <mxPoint x="340" y="60" as="targetPoint" />
          </mxGeometry>
        </mxCell>
        <mxCell id="t8ZlyX8RV-qBCHrKQRfq-11" value="" style="endArrow=none;html=1;rounded=0;exitX=0;exitY=0.25;exitDx=0;exitDy=0;entryX=1;entryY=0.25;entryDx=0;entryDy=0;" edge="1" parent="1" source="kb6SPoYrshyZcdnbLKiK-1" target="kb6SPoYrshyZcdnbLKiK-1">
          <mxGeometry width="50" height="50" relative="1" as="geometry">
            <mxPoint x="400" y="300" as="sourcePoint" />
            <mxPoint x="450" y="250" as="targetPoint" />
          </mxGeometry>
        </mxCell>
        <mxCell id="t8ZlyX8RV-qBCHrKQRfq-17" value="ID" style="text;html=1;align=center;verticalAlign=middle;whiteSpace=wrap;rounded=0;" vertex="1" parent="1">
          <mxGeometry x="40" y="317.5" width="40" height="20" as="geometry" />
        </mxCell>
        <mxCell id="t8ZlyX8RV-qBCHrKQRfq-18" value="Email" style="text;html=1;align=center;verticalAlign=middle;whiteSpace=wrap;rounded=0;" vertex="1" parent="1">
          <mxGeometry x="45" y="340" width="40" height="10" as="geometry" />
        </mxCell>
        <mxCell id="t8ZlyX8RV-qBCHrKQRfq-20" value="1" style="text;html=1;align=center;verticalAlign=middle;whiteSpace=wrap;rounded=0;" vertex="1" parent="1">
          <mxGeometry x="50" y="265" width="60" height="30" as="geometry" />
        </mxCell>
        <mxCell id="t8ZlyX8RV-qBCHrKQRfq-21" value="*" style="text;html=1;align=center;verticalAlign=middle;whiteSpace=wrap;rounded=0;" vertex="1" parent="1">
          <mxGeometry x="65" y="140" width="20" height="20" as="geometry" />
        </mxCell>
        <mxCell id="t8ZlyX8RV-qBCHrKQRfq-23" value="1" style="text;html=1;align=center;verticalAlign=middle;whiteSpace=wrap;rounded=0;" vertex="1" parent="1">
          <mxGeometry x="285" y="300" width="20" height="20" as="geometry" />
        </mxCell>
        <mxCell id="t8ZlyX8RV-qBCHrKQRfq-24" value="*" style="text;html=1;align=center;verticalAlign=middle;whiteSpace=wrap;rounded=0;" vertex="1" parent="1">
          <mxGeometry x="140" y="130" width="20" height="20" as="geometry" />
        </mxCell>
        <mxCell id="t8ZlyX8RV-qBCHrKQRfq-26" value="1..*" style="text;html=1;align=center;verticalAlign=middle;whiteSpace=wrap;rounded=0;" vertex="1" parent="1">
          <mxGeometry x="325" y="140" width="30" height="20" as="geometry" />
        </mxCell>
        <mxCell id="t8ZlyX8RV-qBCHrKQRfq-27" value="*" style="text;html=1;align=center;verticalAlign=middle;whiteSpace=wrap;rounded=0;" vertex="1" parent="1">
          <mxGeometry x="330" y="265" width="20" height="20" as="geometry" />
        </mxCell>
        <mxCell id="rcWwpOU2PHJGjBlKOGmK-8" value="" style="edgeStyle=orthogonalEdgeStyle;rounded=0;orthogonalLoop=1;jettySize=auto;html=1;entryX=0.5;entryY=1;entryDx=0;entryDy=0;exitX=0.5;exitY=0;exitDx=0;exitDy=0;" edge="1" parent="1" source="t8ZlyX8RV-qBCHrKQRfq-2" target="kb6SPoYrshyZcdnbLKiK-2">
          <mxGeometry relative="1" as="geometry" />
        </mxCell>
        <mxCell id="t8ZlyX8RV-qBCHrKQRfq-28" value="Uploads and Stores" style="text;html=1;align=center;verticalAlign=middle;whiteSpace=wrap;rounded=0;" vertex="1" parent="1">
          <mxGeometry x="40" y="210" width="40" height="20" as="geometry" />
        </mxCell>
        <mxCell id="t8ZlyX8RV-qBCHrKQRfq-29" value="Has" style="text;html=1;align=center;verticalAlign=middle;whiteSpace=wrap;rounded=0;" vertex="1" parent="1">
          <mxGeometry x="180" y="210" width="40" height="20" as="geometry" />
        </mxCell>
        <mxCell id="t8ZlyX8RV-qBCHrKQRfq-30" value="Manages" style="text;html=1;align=center;verticalAlign=middle;whiteSpace=wrap;rounded=0;" vertex="1" parent="1">
          <mxGeometry x="305" y="200" width="50" height="20" as="geometry" />
        </mxCell>
        <mxCell id="rcWwpOU2PHJGjBlKOGmK-1" value="Description" style="text;html=1;align=center;verticalAlign=middle;whiteSpace=wrap;rounded=0;" vertex="1" parent="1">
          <mxGeometry x="325" y="335" width="40" height="15" as="geometry" />
        </mxCell>
        <mxCell id="rcWwpOU2PHJGjBlKOGmK-3" value="Name" style="text;html=1;align=center;verticalAlign=middle;whiteSpace=wrap;rounded=0;" vertex="1" parent="1">
          <mxGeometry x="305" y="352.5" width="50" height="10" as="geometry" />
        </mxCell>
        <mxCell id="rcWwpOU2PHJGjBlKOGmK-4" value="Address" style="text;html=1;align=center;verticalAlign=middle;whiteSpace=wrap;rounded=0;" vertex="1" parent="1">
          <mxGeometry x="310" y="317.5" width="50" height="20" as="geometry" />
        </mxCell>
        <mxCell id="rcWwpOU2PHJGjBlKOGmK-5" value="ID" style="text;html=1;align=center;verticalAlign=middle;whiteSpace=wrap;rounded=0;" vertex="1" parent="1">
          <mxGeometry x="305" y="70" width="30" height="10" as="geometry" />
        </mxCell>
        <mxCell id="rcWwpOU2PHJGjBlKOGmK-11" value="Email" style="text;html=1;align=center;verticalAlign=middle;whiteSpace=wrap;rounded=0;" vertex="1" parent="1">
          <mxGeometry x="310" y="85" width="30" height="7.5" as="geometry" />
        </mxCell>
        <mxCell id="rcWwpOU2PHJGjBlKOGmK-12" value="Format" style="text;html=1;align=center;verticalAlign=middle;whiteSpace=wrap;rounded=0;" vertex="1" parent="1">
          <mxGeometry x="40" y="65" width="50" height="20" as="geometry" />
        </mxCell>
        <mxCell id="rcWwpOU2PHJGjBlKOGmK-15" value="Finds" style="text;html=1;align=center;verticalAlign=middle;whiteSpace=wrap;rounded=0;" vertex="1" parent="1">
          <mxGeometry x="197.5" y="340" width="45" height="20" as="geometry" />
        </mxCell>
        <mxCell id="rcWwpOU2PHJGjBlKOGmK-16" value="1" style="text;html=1;align=center;verticalAlign=middle;whiteSpace=wrap;rounded=0;" vertex="1" parent="1">
          <mxGeometry x="140" y="342.5" width="20" height="10" as="geometry" />
        </mxCell>
        <mxCell id="rcWwpOU2PHJGjBlKOGmK-17" value="*" style="text;html=1;align=center;verticalAlign=middle;whiteSpace=wrap;rounded=0;" vertex="1" parent="1">
          <mxGeometry x="285" y="340" width="20" height="20" as="geometry" />
        </mxCell>
        <mxCell id="rcWwpOU2PHJGjBlKOGmK-18" value="1..*" style="text;html=1;align=center;verticalAlign=middle;whiteSpace=wrap;rounded=0;" vertex="1" parent="1">
          <mxGeometry x="270" y="67.5" width="30" height="20" as="geometry" />
        </mxCell>
        <mxCell id="rcWwpOU2PHJGjBlKOGmK-21" value="*" style="text;html=1;align=center;verticalAlign=middle;whiteSpace=wrap;rounded=0;" vertex="1" parent="1">
          <mxGeometry x="145" y="72.5" width="20" height="10" as="geometry" />
        </mxCell>
      </root>
    </mxGraphModel>
  </diagram>
</mxfile>
